# xmcd
#
# Track frame offsets: 
#        150
#        13514
#        25862
#        37316
#        51200
#        60613
#        72704
#        84002
#        94952
#        108502
#        120117
#        131540
#        142577
#        153988
#        166100
#        178879
#        193222
#        207147
#        222162
#        235655
#
# Disc length: 3314 seconds
#
# Revision: 4
# Processed by: cddbd v1.5.2PL0 Copyright (c) Steve Scherf et al.
# Submitted via: ExactAudioCopyFreeDBPlugin 1.0
#
DISCID=0e0cf014
DTITLE=Glen Campbell - Country Greatest
DYEAR=2000
DGENRE=Country
TTITLE0=Gentle On My Mind
TTITLE1=By The Time I Get To Phoenix
TTITLE2=Hey Little One
TTITLE3=Wichita Lineman
TTITLE4=Let It Be Me
TTITLE5=Galveston
TTITLE6=True Grit
TTITLE7=Try A Little Kindness
TTITLE8=Honey Come Back
TTITLE9=All I Have To Do Is Dream
TTITLE10=Everything A Man Could Ever Need
TTITLE11=It's Only Make Believe
TTITLE12=Dream Baby (How Long Must I Dream)
TTITLE13=Manhattan Kansas
TTITLE14=Bonapart's Retreat
TTITLE15=Rhinestone Cowboy
TTITLE16=Country Boy (You Got Your Feet In L.A.)
TTITLE17=Don't Pull Your Love - Then You Can Tell Me Goodbye
TTITLE18=Southern Nights
TTITLE19=Sunflower
EXTD=
EXTT0=
EXTT1=
EXTT2=
EXTT3=
EXTT4=
EXTT5=
EXTT6=
EXTT7=
EXTT8=
EXTT9=
EXTT10=
EXTT11=
EXTT12=
EXTT13=
EXTT14=
EXTT15=
EXTT16=
EXTT17=
EXTT18=
EXTT19=
PLAYORDER=
